<svg id="Layer_1" data-name="Layer 1" xmlns="http://www.w3.org/2000/svg" viewBox="0 0 60 60"><title>CCC-icons</title><path d="M24.84,27.45v1.41a.82.82,0,0,1-.83.83H21.84a.82.82,0,0,1-.83-.83V27.45a.82.82,0,0,1,.83-.83H24A.78.78,0,0,1,24.84,27.45Zm-6.62-10,2.43.05a.9.9,0,0,0,.88-.62,1.89,1.89,0,0,1,.47-.79,1.87,1.87,0,0,1,1.29-.46,1.84,1.84,0,0,1,1.45.57,2.12,2.12,0,0,1,.52,1.56,3.12,3.12,0,0,1-.47,1.67,3.69,3.69,0,0,1-1.19,1.2,8.34,8.34,0,0,0-2.07,1.88A3.26,3.26,0,0,0,21,24.32a.58.58,0,0,0,.62.63h2.64a.62.62,0,0,0,.62-.52,2.85,2.85,0,0,1,.26-1,2.68,2.68,0,0,1,1-1,6.26,6.26,0,0,0,2.17-1.88,4.35,4.35,0,0,0,.83-2.65,4.84,4.84,0,0,0-1.55-3.76,6.21,6.21,0,0,0-4.3-1.41,6.6,6.6,0,0,0-4.09,1.2,4,4,0,0,0-1.5,3A.54.54,0,0,0,18.22,17.49Zm30.84,4H46.25l-.08,4.83h2.08a2.49,2.49,0,0,1,2.08,2.09V43c0,.89-.33,2.07-1.27,2.07H46.37V49.3L42.13,45l-21,.06c-.88,0-.68-.79-.68-1.73V40.54h-.62l-3.1,3.12c.15,2.87,3.63,5.59,6.48,5.59H39.92l6.82,5.68a2,2,0,0,0,3.46-1.46l.13-4.22c2.44-.52,4.17-3.34,4.17-6V26.93A5.44,5.44,0,0,0,49.06,21.5ZM4.5,31.51V10.92A5.4,5.4,0,0,1,9.88,5.5H36.8a5.4,5.4,0,0,1,5.38,5.42V31.51a5.4,5.4,0,0,1-5.38,5.43H18.37l-6.1,6.2a2,2,0,0,1-1.4.58,2.07,2.07,0,0,1-1.4-.58,2,2,0,0,1-.62-1.51V36.78A5.37,5.37,0,0,1,4.5,31.51Zm4.12,0c0,.89.38,1.65,1.32,1.65h2.69v4.28L17,32.58l19.9.6c.88,0,.93-1.74.93-2.68V11.75a2.48,2.48,0,0,0-2.08-2.08h-25a2.48,2.48,0,0,0-2.08,2.08V30.5Z" fill="#00aff0"/></svg>