<svg id="Layer_1" data-name="Layer 1" xmlns="http://www.w3.org/2000/svg" viewBox="0 0 60 60"><title>CCC-icons</title><path d="M52.23,7.46H38.3l-.43-2.62a2.16,2.16,0,0,0-4.25.77L34,7.46H25l.33-1.85a2.16,2.16,0,0,0-4.25-.77l-.43,2.62H6.52a3.21,3.21,0,0,0-3.27,3.26V38.05a3.21,3.21,0,0,0,3.27,3.26h8.16l-2,11.43a2.19,2.19,0,0,0,1.74,2.5A2.26,2.26,0,0,0,17,53.5L19,41.31H39.61L41.68,53.5a2.21,2.21,0,0,0,2.5,1.74,2.11,2.11,0,0,0,1.74-2.5L44,41.31h8.27a3.21,3.21,0,0,0,3.27-3.26V10.72A3.21,3.21,0,0,0,52.23,7.46ZM51.15,36.85H7.6v-25H51.15Z" fill="#00aff0"/></svg>