<svg id="Layer_1" data-name="Layer 1" xmlns="http://www.w3.org/2000/svg" viewBox="0 0 60 60"><title>CCC-icons</title><path d="M53.6,17.7H47.5V9.2a1.69,1.69,0,0,0-1.7-1.7H7.5A1.69,1.69,0,0,0,5.8,9.2V46.7c.1.3,1.9,8.3,8.5,8.3H49.1a2.35,2.35,0,0,0,.8-.2c.2-.1,5.5-2.8,5.5-8.1V19.4A1.92,1.92,0,0,0,53.6,17.7Zm-1.8,29c0,2.6-2.4,4.3-3.3,4.8H14.2c-3.4,0-4.8-4.5-5.1-5.4V11H44V43.9a1.7,1.7,0,0,0,3.4,0V21.2h4.4ZM16.1,29.6h8.1a1.69,1.69,0,0,0,1.7-1.7V18.6a1.69,1.69,0,0,0-1.7-1.7H16.1a1.69,1.69,0,0,0-1.7,1.7v9.3A1.58,1.58,0,0,0,16.1,29.6Zm1.7-9.3h4.6v5.8H17.8ZM38.2,42.5H15.5a1.69,1.69,0,0,0-1.7,1.7,1.75,1.75,0,0,0,1.7,1.7H38.2a1.69,1.69,0,0,0,1.7-1.7A1.75,1.75,0,0,0,38.2,42.5Zm-22.4-5H37.9a1.69,1.69,0,0,0,1.7-1.7,1.75,1.75,0,0,0-1.7-1.7H15.8a1.7,1.7,0,1,0,0,3.4ZM38.2,17.1H31.5a1.7,1.7,0,1,0,0,3.4h6.7a1.69,1.69,0,0,0,1.7-1.7A1.75,1.75,0,0,0,38.2,17.1Zm0,8.5H31.5a1.7,1.7,0,1,0,0,3.4h6.7a1.7,1.7,0,0,0,0-3.4Z" fill="#00aff0"/></svg>