<svg id="Layer_1" data-name="Layer 1" xmlns="http://www.w3.org/2000/svg" viewBox="0 0 60 60"><title>CCC-icons</title><path d="M11.1,47.1H48.86a1.88,1.88,0,0,0,1.89-1.89V6.66a1.91,1.91,0,0,0-1.89-1.91H11.1A1.9,1.9,0,0,0,9.22,6.66V45.21A1.87,1.87,0,0,0,11.1,47.1Zm9.65-3.8a9.41,9.41,0,0,1,18.5,0ZM12.51,8.19H47.45L47,43.29H43.08a13.19,13.19,0,0,0-26.16,0l-4.41.09Zm26.93,14A9.44,9.44,0,1,0,30,31.79,9.52,9.52,0,0,0,39.44,22.22ZM30,28a5.75,5.75,0,1,1,5.66-5.74A5.7,5.7,0,0,1,30,28ZM49.1,50.7H10.9a1.9,1.9,0,0,0,0,3.8H49.1a1.9,1.9,0,0,0,0-3.8Z" fill="#00aff0"/></svg>