<svg id="Layer_1" data-name="Layer 1" xmlns="http://www.w3.org/2000/svg" viewBox="0 0 60 60"><title>CCC-icons</title><path d="M54,14.5a5.9,5.9,0,1,0-5.9,5.9A5.91,5.91,0,0,0,54,14.5Zm-5.9,2.9A2.9,2.9,0,1,1,51,14.5,2.84,2.84,0,0,1,48.1,17.4ZM18.4,41H6.6a1.54,1.54,0,0,0-1.5,1.5v8.9a1.54,1.54,0,0,0,1.5,1.5H18.4a1.54,1.54,0,0,0,1.5-1.5V42.5A1.54,1.54,0,0,0,18.4,41ZM17,50H8.1V44h8.8v6ZM36.3,29.2h-12a1.54,1.54,0,0,0-1.5,1.5V51.4a1.54,1.54,0,0,0,1.5,1.5h12a1.54,1.54,0,0,0,1.5-1.5V30.7A1.54,1.54,0,0,0,36.3,29.2ZM34.8,50h-9V32.2h9ZM54,35.1H42.2a1.54,1.54,0,0,0-1.5,1.5V51.4a1.54,1.54,0,0,0,1.5,1.5H54a1.54,1.54,0,0,0,1.5-1.5V36.6A1.54,1.54,0,0,0,54,35.1ZM52.5,50H43.7V38.1h8.8ZM48.1,20.4a7.38,7.38,0,0,0-7.4,7.4v2.9a1.54,1.54,0,0,0,1.5,1.5H54a1.54,1.54,0,0,0,1.5-1.5V27.8A7.38,7.38,0,0,0,48.1,20.4Zm4.4,8.8H43.7V27.7a4.4,4.4,0,1,1,8.8,0v1.5ZM36.3,8.6a6,6,0,1,0-12,0,6,6,0,0,0,6,5.9A5.93,5.93,0,0,0,36.3,8.6Zm-6,2.9a3,3,0,0,1-3-2.9,3,3,0,1,1,6,0A2.87,2.87,0,0,1,30.3,11.5Zm0,3a7.47,7.47,0,0,0-7.5,7.4v2.9a1.54,1.54,0,0,0,1.5,1.5h12a1.54,1.54,0,0,0,1.5-1.5V21.9A7.47,7.47,0,0,0,30.3,14.5Zm4.5,8.8h-9V21.8a4.53,4.53,0,0,1,4.5-4.4,4.46,4.46,0,0,1,4.5,4.4ZM18.4,20.4a5.9,5.9,0,1,0-5.9,5.9A5.91,5.91,0,0,0,18.4,20.4Zm-5.9,2.9a2.9,2.9,0,1,1,2.9-2.9A2.78,2.78,0,0,1,12.5,23.3Zm0,3a7.38,7.38,0,0,0-7.4,7.4v2.9a1.54,1.54,0,0,0,1.5,1.5H18.4a1.54,1.54,0,0,0,1.5-1.5V33.7A7.38,7.38,0,0,0,12.5,26.3ZM17,35.1H8.1V33.6a4.4,4.4,0,1,1,8.8,0v1.5Z" fill="#00aff0"/></svg>