<svg id="Layer_1" data-name="Layer 1" xmlns="http://www.w3.org/2000/svg" viewBox="0 0 60 60"><title>CCC-icons</title><path d="M53.27,51.84H49.72V18.91a4.49,4.49,0,0,0-1-8.86H47.11V8.9a4,4,0,0,0-4-4H19.72a4,4,0,0,0-4,4v1.15H14.13a4.49,4.49,0,0,0-1.06,8.85V51.83H9.52a1.73,1.73,0,1,0,0,3.45H53.27a1.73,1.73,0,1,0,0-3.45ZM19.14,8.9a.58.58,0,0,1,.58-.57H43.08a.57.57,0,0,1,.57.57v1.15H19.14ZM35,51.84H27.75V42.75a3.65,3.65,0,0,1,7.3,0h0Zm11.23,0H38.5V42.75a7.11,7.11,0,0,0-14.21,0v9.09H16.53V19H46.27Zm2.39-36.27H14.13a1,1,0,1,1,0-2.07H48.67a1,1,0,0,1,0,2.07h0Z" fill="#00aff0"/><path d="M35.26,32.61h5.22a1.73,1.73,0,0,0,0-3.45H35.26a1.73,1.73,0,1,0,0,3.45Z" fill="#00aff0"/><path d="M22.32,32.61h5.21a1.73,1.73,0,1,0,0-3.45H22.32a1.73,1.73,0,1,0,0,3.45Z" fill="#00aff0"/><path d="M35.26,26.28h5.22a1.73,1.73,0,0,0,0-3.45H35.26a1.73,1.73,0,1,0,0,3.45Z" fill="#00aff0"/><path d="M22.32,26.28h5.21a1.73,1.73,0,1,0,0-3.45H22.32a1.73,1.73,0,1,0,0,3.45Z" fill="#00aff0"/></svg>