<svg id="Layer_1" data-name="Layer 1" xmlns="http://www.w3.org/2000/svg" viewBox="0 0 60 60"><title>CCC-icons</title><path d="M56.6,28.1a1.76,1.76,0,0,1-1.3.6,1.92,1.92,0,0,1-1.2-.4l-1.9-1.6V52.9a1.79,1.79,0,0,1-1.8,1.8H11.6a1.79,1.79,0,0,1-1.8-1.8V26.6L7.9,28.2A1.76,1.76,0,0,1,5.4,28a1.68,1.68,0,0,1,.2-2.5l24.3-21a1.82,1.82,0,0,1,2.4,0l24.3,21A2,2,0,0,1,56.6,28.1Zm-29.7,23h8.3V36.5H26.9ZM31,8.2,13.3,23.5h0V51h10V34.8A1.79,1.79,0,0,1,25.1,33H36.9a1.79,1.79,0,0,1,1.8,1.8V51.1h10V23.5h0Zm2.2,14.2H28.8a1.8,1.8,0,0,1,0-3.6h4.4a1.8,1.8,0,0,1,0,3.6Z" fill="#00aff0"/></svg>