<svg id="Layer_1" data-name="Layer 1" xmlns="http://www.w3.org/2000/svg" viewBox="0 0 60 60"><title>CCC-icons</title><path d="M30,47.1a7.57,7.57,0,0,1-1.5-.1l-8,7.5a2,2,0,0,1-2.1.4,2,2,0,0,1-1.2-1.8V42.9a21.3,21.3,0,1,1,34-17.1A21,21,0,0,1,30,47.1ZM30,8.4A17.5,17.5,0,0,0,12.5,25.8a17.31,17.31,0,0,0,7.7,14.4,2.23,2.23,0,0,1,.9,1.7v6.7l5.3-5a1.74,1.74,0,0,1,1.5-.5,13.4,13.4,0,0,0,2,.1A17.5,17.5,0,0,0,47.4,25.8,17.29,17.29,0,0,0,30,8.4ZM31,28v.9a2,2,0,0,1-1.9,2,1.92,1.92,0,0,1-1.9-2V26a2,2,0,0,1,1.9-2H31a2.93,2.93,0,0,0,2.9-3A3,3,0,0,0,31,18H24.2a1.92,1.92,0,0,1-1.9-2,2,2,0,0,1,1.9-2H31a7,7,0,0,1,0,14Zm-1.9,5.3A2.7,2.7,0,1,1,26.5,36,2.61,2.61,0,0,1,29.1,33.3Z" fill="#00aff0"/></svg>