<svg id="Layer_1" data-name="Layer 1" xmlns="http://www.w3.org/2000/svg" viewBox="0 0 60 60"><title>CCC-icons</title><path d="M48.9,38.4h-.3v-8a17.3,17.3,0,0,0-12-16.6,6,6,0,0,0,.5-2.4v-.1a5.8,5.8,0,0,0-11.6,0v.1a6.44,6.44,0,0,0,.5,2.4A17.39,17.39,0,0,0,14,30.4v8h-.3a5.2,5.2,0,0,0,0,10.4H25.5v.5c0,3.5,2.6,6.4,5.8,6.4s5.8-2.9,5.8-6.4v-.5H48.9a5.2,5.2,0,0,0,0-10.4Zm-19.1-27h0a1.56,1.56,0,0,1,1.5-1.6,1.47,1.47,0,0,1,1.5,1.5v.1a1.5,1.5,0,0,1-3,0Zm-11.5,19a13.1,13.1,0,1,1,26.2,0v8H18.4l-.1-8ZM32.9,49.2c0,1.2-.7,2.1-1.6,2.1s-1.6-1-1.6-2.1v-.5h3.2v.5Zm16-4.7H13.7a.9.9,0,1,1,0-1.8H48.9a.9.9,0,0,1,.9.9A1,1,0,0,1,48.9,44.5Z" fill="#00aff0"/></svg>