<svg id="Layer_1" data-name="Layer 1" xmlns="http://www.w3.org/2000/svg" viewBox="0 0 60 60"><title>CCC-icons</title><path d="M20.1,39A47.81,47.81,0,0,0,34.72,49.34a18.13,18.13,0,0,0,7,1.62h0a8.1,8.1,0,0,0,5.89-2.21l2.89-2.87A5.37,5.37,0,0,0,52,41.36h0a5.38,5.38,0,0,0-2.66-4l-9.67-5.56a5.37,5.37,0,0,0-6.48.86L31.92,34c-1.18-1-2.39-2.1-3.54-3.24s-2.22-2.36-3.23-3.53l1.29-1.3a5.39,5.39,0,0,0,.86-6.48L21.72,9.75a5.4,5.4,0,0,0-7.36-2,5.56,5.56,0,0,0-1.12.86L10.37,11.5c-1.58,1.58-3.76,5.36-.59,12.9A47.85,47.85,0,0,0,20.1,39ZM13.7,14.85,16.57,12a.65.65,0,0,1,.47-.2h.09a.65.65,0,0,1,.5.33l5.57,9.67a.67.67,0,0,1-.11.8l-1.9,1.91a3.74,3.74,0,0,0-.27,5A57.42,57.42,0,0,0,25,34.09a57.8,57.8,0,0,0,4.59,4.13,3.75,3.75,0,0,0,5-.28l1.9-1.9a.67.67,0,0,1,.81-.11L47,41.5a.64.64,0,0,1,.14,1l-2.87,2.87a3.47,3.47,0,0,1-2.58.84h0A14.21,14.21,0,0,1,36.53,45a43.67,43.67,0,0,1-13.1-9.32,43.3,43.3,0,0,1-9.31-13.11c-1.51-3.6-1.66-6.5-.42-7.74Z" fill="#00aff0"/></svg>