<svg id="Layer_1" data-name="Layer 1" xmlns="http://www.w3.org/2000/svg" viewBox="0 0 60 60"><title>CCC-icons</title><path d="M29.5,2.94a7.8,7.8,0,1,0,7.8,7.8A7.81,7.81,0,0,0,29.5,2.94Zm0,4.6a3.1,3.1,0,1,1-3.1,3.1A3.12,3.12,0,0,1,29.5,7.54Zm-14,6.3a3.12,3.12,0,0,0-3.1,2.6l-4.5,3.2a2.42,2.42,0,0,0-1,1.9v14h-1a2.29,2.29,0,0,0-2.1,2.3v10.9A2.26,2.26,0,0,0,6.1,51H52.6a2.47,2.47,0,0,0,2.3-2.3V37.84a2.26,2.26,0,0,0-2.3-2.3H44.1v-6.4c0-2.9-2-5.4-4.6-6.9a20.66,20.66,0,0,0-10.1-2.3,20.39,20.39,0,0,0-10.1,2.3c-2.7,1.5-4.6,3.9-4.6,6.9v6.4H11.6V22.74L15.5,20h0a3.1,3.1,0,0,0,0-6.2Zm14,10.8a16.27,16.27,0,0,1,7.9,1.7c1.7,1,2.2,1.9,2.2,2.8v6.4H19.4v-6.4c0-.9.5-1.9,2.2-2.8A16.27,16.27,0,0,1,29.5,24.64Zm-21,15.6H50.4v6.2H8.5Z" fill="#00aff0"/></svg>