<svg id="Layer_1" data-name="Layer 1" xmlns="http://www.w3.org/2000/svg" viewBox="0 0 60 60"><title>icon_</title><path d="M54.3,16.37H48.2V7.87a1.69,1.69,0,0,0-1.7-1.7H8.2a1.69,1.69,0,0,0-1.7,1.7v37.5c.1.3,1.9,8.3,8.5,8.3H49.8a2.35,2.35,0,0,0,.8-.2c.2-.1,5.5-2.8,5.5-8.1V18.07A1.92,1.92,0,0,0,54.3,16.37Zm-1.8,29c0,2.6-2.4,4.3-3.3,4.8H14.9c-3.4,0-4.8-4.5-5.1-5.4V9.67H44.7v32.9a1.7,1.7,0,0,0,3.4,0V19.87h4.4ZM16.8,28.27h8.1a1.69,1.69,0,0,0,1.7-1.7v-9.3a1.69,1.69,0,0,0-1.7-1.7H16.8a1.69,1.69,0,0,0-1.7,1.7v9.3A1.58,1.58,0,0,0,16.8,28.27ZM18.5,19h4.6v5.8H18.5Zm20.4,22.2H16.2a1.69,1.69,0,0,0-1.7,1.7,1.75,1.75,0,0,0,1.7,1.7H38.9a1.69,1.69,0,0,0,1.7-1.7A1.75,1.75,0,0,0,38.9,41.17Zm-22.4-5H38.6a1.69,1.69,0,0,0,1.7-1.7,1.75,1.75,0,0,0-1.7-1.7H16.5a1.7,1.7,0,0,0,0,3.4Zm22.4-20.4H32.2a1.7,1.7,0,0,0,0,3.4h6.7a1.69,1.69,0,0,0,1.7-1.7A1.75,1.75,0,0,0,38.9,15.77Zm0,8.5H32.2a1.7,1.7,0,0,0,0,3.4h6.7a1.7,1.7,0,1,0,0-3.4Z" fill="#00aff0"/></svg>