<svg id="Layer_1" data-name="Layer 1" xmlns="http://www.w3.org/2000/svg" viewBox="0 0 60 60"><title>icon_</title><path d="M48.63,39h-.3V31a17.3,17.3,0,0,0-12-16.6,6,6,0,0,0,.5-2.4v-.1a5.8,5.8,0,0,0-11.6,0V12a6.44,6.44,0,0,0,.5,2.4,17.39,17.39,0,0,0-12,16.6v8h-.3a5.2,5.2,0,0,0,0,10.4h11.8v.5c0,3.5,2.6,6.4,5.8,6.4s5.8-2.9,5.8-6.4v-.5h11.8a5.2,5.2,0,0,0,0-10.4ZM29.53,12h0A1.56,1.56,0,0,1,31,10.4a1.47,1.47,0,0,1,1.5,1.5V12a1.5,1.5,0,1,1-3,0ZM18,31a13.1,13.1,0,1,1,26.2,0v8H18.13V31Zm14.6,18.8c0,1.2-.7,2.1-1.6,2.1s-1.6-1-1.6-2.1v-.5h3.2v.5Zm16-4.7H13.43a.9.9,0,0,1,0-1.8h35.2a.9.9,0,0,1,.9.9A1,1,0,0,1,48.63,45.1Z" fill="#00aff0"/></svg>