<svg id="Layer_1" data-name="Layer 1" xmlns="http://www.w3.org/2000/svg" viewBox="0 0 60 60"><title>icon_</title><path d="M53.23,16.07a5.9,5.9,0,1,0-5.9,5.9A5.91,5.91,0,0,0,53.23,16.07ZM47.33,19a2.9,2.9,0,1,1,2.9-2.9A2.84,2.84,0,0,1,47.33,19Zm-29.7,23.6H5.83a1.54,1.54,0,0,0-1.5,1.5V53a1.54,1.54,0,0,0,1.5,1.5h11.8a1.54,1.54,0,0,0,1.5-1.5v-8.9A1.54,1.54,0,0,0,17.63,42.57Zm-1.4,9H7.33v-6h8.8v6Zm19.3-20.8h-12a1.54,1.54,0,0,0-1.5,1.5V53a1.54,1.54,0,0,0,1.5,1.5h12A1.54,1.54,0,0,0,37,53V32.27A1.54,1.54,0,0,0,35.53,30.77ZM34,51.57H25V33.77h9Zm19.2-14.9H41.43a1.54,1.54,0,0,0-1.5,1.5V53a1.54,1.54,0,0,0,1.5,1.5h11.8a1.54,1.54,0,0,0,1.5-1.5V38.17A1.54,1.54,0,0,0,53.23,36.67Zm-1.5,14.9h-8.8V39.67h8.8ZM47.33,22a7.38,7.38,0,0,0-7.4,7.4v2.9a1.54,1.54,0,0,0,1.5,1.5h11.8a1.54,1.54,0,0,0,1.5-1.5v-2.9A7.38,7.38,0,0,0,47.33,22Zm4.4,8.8h-8.8v-1.5a4.4,4.4,0,0,1,8.8,0Zm-16.2-20.6a6,6,0,1,0-12,0,6,6,0,0,0,6,5.9A5.93,5.93,0,0,0,35.53,10.17Zm-6,2.9a3,3,0,0,1-3-2.9,3,3,0,1,1,6,0A2.87,2.87,0,0,1,29.53,13.07Zm0,3a7.47,7.47,0,0,0-7.5,7.4v2.9a1.54,1.54,0,0,0,1.5,1.5h12a1.54,1.54,0,0,0,1.5-1.5v-2.9A7.47,7.47,0,0,0,29.53,16.07Zm4.5,8.8H25v-1.5a4.53,4.53,0,0,1,4.5-4.4,4.46,4.46,0,0,1,4.5,4.4ZM17.63,22a5.9,5.9,0,1,0-5.9,5.9A5.91,5.91,0,0,0,17.63,22Zm-5.9,2.9a2.9,2.9,0,1,1,2.9-2.9A2.78,2.78,0,0,1,11.73,24.87Zm0,3a7.38,7.38,0,0,0-7.4,7.4v2.9a1.54,1.54,0,0,0,1.5,1.5h11.8a1.54,1.54,0,0,0,1.5-1.5v-2.9A7.38,7.38,0,0,0,11.73,27.87Zm4.5,8.8H7.33v-1.5a4.4,4.4,0,1,1,8.8,0v1.5Z" fill="#00aff0"/></svg>