<svg id="Layer_1" data-name="Layer 1" xmlns="http://www.w3.org/2000/svg" viewBox="0 0 60 60"><title>icon_</title><path d="M29.23,48.7a7.57,7.57,0,0,1-1.5-.1l-8,7.5a2,2,0,0,1-2.1.4,2,2,0,0,1-1.2-1.8V44.5a21.3,21.3,0,1,1,34-17.1A21,21,0,0,1,29.23,48.7Zm0-38.7a17.5,17.5,0,0,0-17.5,17.4,17.31,17.31,0,0,0,7.7,14.4,2.23,2.23,0,0,1,.9,1.7v6.7l5.3-5a1.74,1.74,0,0,1,1.5-.5,13.4,13.4,0,0,0,2,.1,17.5,17.5,0,0,0,17.5-17.4A17.29,17.29,0,0,0,29.23,10Zm1,19.6v.9a2,2,0,0,1-1.9,2,1.92,1.92,0,0,1-1.9-2V27.6a2,2,0,0,1,1.9-2h1.9a2.93,2.93,0,0,0,2.9-3,3,3,0,0,0-2.9-3h-6.8a1.92,1.92,0,0,1-1.9-2,2,2,0,0,1,1.9-2h6.8a7,7,0,0,1,0,14Zm-1.9,5.3a2.7,2.7,0,1,1-2.6,2.7A2.61,2.61,0,0,1,28.33,34.9Z" fill="#00aff0"/></svg>