<svg id="Layer_1" data-name="Layer 1" xmlns="http://www.w3.org/2000/svg" viewBox="0 0 60 60"><title>icon_</title><path d="M32.23,5.07a7.8,7.8,0,1,0,7.8,7.8A7.81,7.81,0,0,0,32.23,5.07Zm0,4.6a3.1,3.1,0,1,1-3.1,3.1A3.12,3.12,0,0,1,32.23,9.67Zm-14,6.3a3.12,3.12,0,0,0-3.1,2.6l-4.5,3.2a2.42,2.42,0,0,0-1,1.9v14h-1A2.29,2.29,0,0,0,6.53,40v10.9a2.26,2.26,0,0,0,2.3,2.3h46.5a2.47,2.47,0,0,0,2.3-2.3V40a2.26,2.26,0,0,0-2.3-2.3h-8.5v-6.4c0-2.9-2-5.4-4.6-6.9a20.66,20.66,0,0,0-10.1-2.3A20.39,20.39,0,0,0,22,24.37c-2.7,1.5-4.6,3.9-4.6,6.9v6.4h-3.1V24.87l3.9-2.7h0a3.1,3.1,0,0,0,0-6.2Zm14,10.8a16.27,16.27,0,0,1,7.9,1.7c1.7,1,2.2,1.9,2.2,2.8v6.4H22.13v-6.4c0-.9.5-1.9,2.2-2.8A16.27,16.27,0,0,1,32.23,26.77Zm-21,15.6h41.9v6.2H11.23Z" fill="#00aff0"/></svg>