<?xml version="1.0" standalone="no"?>
<!DOCTYPE svg PUBLIC "-//W3C//DTD SVG 20010904//EN"
 "http://www.w3.org/TR/2001/REC-SVG-20010904/DTD/svg10.dtd">
<svg version="1.0" xmlns="http://www.w3.org/2000/svg"
 width="272.000000pt" height="272.000000pt" viewBox="0 0 272.000000 272.000000"
 preserveAspectRatio="xMidYMid meet">
<metadata>
Created by potrace 1.11, written by Peter Selinger 2001-2013
</metadata>
<g transform="translate(0.000000,272.000000) scale(0.100000,-0.100000)"
fill="#000000" stroke="none">
<path d="M1927 2700 c-34 -27 -38 -87 -7 -115 17 -15 20 -31 20 -105 l0 -87
-73 71 c-86 83 -158 128 -270 169 -108 39 -275 48 -390 23 -72 -16 -199 -72
-262 -115 -48 -33 -142 -130 -181 -187 -27 -39 -51 -60 -90 -79 -70 -34 -146
-119 -174 -193 -30 -78 -30 -186 0 -264 28 -75 102 -156 174 -191 43 -21 65
-40 92 -82 39 -58 59 -72 80 -54 21 17 17 35 -20 86 -79 112 -116 232 -116
377 0 111 18 185 69 291 93 189 278 322 494 355 280 42 568 -118 687 -383 41
-92 55 -161 54 -272 0 -143 -39 -265 -121 -377 -36 -50 -40 -80 -10 -86 23 -5
52 21 84 76 18 30 40 50 75 68 67 34 128 98 164 170 26 53 29 69 29 154 0 82
-4 103 -26 151 -33 71 -83 125 -148 164 l-51 30 0 133 c0 119 2 137 20 159 58
74 -29 171 -103 113z m-1262 -562 c-26 -87 -30 -220 -11 -318 10 -46 22 -92
27 -102 17 -32 -9 -20 -52 23 -60 60 -84 118 -84 209 0 62 5 85 28 132 25 52
92 126 104 115 2 -3 -3 -29 -12 -59z m1438 7 c10 -11 30 -44 43 -73 33 -68 35
-168 6 -235 -19 -42 -86 -127 -101 -127 -4 0 1 30 10 68 30 115 22 310 -16
407 l-8 20 23 -20 c14 -11 33 -29 43 -40z"/>
<path d="M1228 2421 c-80 -26 -136 -61 -191 -120 -52 -55 -102 -150 -112 -213
-4 -21 -17 -49 -30 -62 -28 -28 -49 -120 -39 -173 3 -21 20 -64 37 -96 30 -57
30 -58 25 -185 -8 -184 -41 -252 -153 -310 -47 -24 -62 -26 -230 -32 -168 -5
-184 -7 -238 -33 -109 -50 -184 -135 -218 -249 -54 -178 33 -366 199 -428 207
-78 416 58 415 270 0 74 -17 121 -63 173 l-32 37 38 0 c22 1 59 5 84 10 25 4
46 7 48 5 2 -1 -7 -20 -20 -41 -48 -81 -23 -203 56 -271 l34 -31 -43 -16
c-101 -39 -182 -150 -192 -264 -9 -102 43 -234 119 -298 153 -128 375 -117
531 26 30 27 65 69 78 94 13 26 26 46 29 46 3 0 14 -18 24 -40 27 -55 124
-146 190 -176 110 -50 243 -51 339 -2 56 28 129 99 159 155 94 172 21 394
-149 459 l-44 17 35 29 c73 60 100 188 56 273 -11 22 -20 40 -20 41 0 1 19 -2
43 -7 23 -4 62 -8 86 -9 l45 0 -31 -33 c-66 -70 -88 -162 -59 -259 36 -127
148 -210 282 -209 82 0 139 19 204 66 102 75 153 208 130 337 -23 127 -112
242 -228 296 -53 24 -70 27 -237 32 -209 7 -243 17 -312 93 -57 62 -73 120
-73 270 0 110 2 122 26 163 35 60 44 164 20 228 -9 24 -23 47 -31 50 -8 3 -17
22 -21 43 -47 258 -318 423 -566 344z m292 -85 c101 -50 186 -159 205 -259 l7
-36 -188 -3 c-104 -2 -273 -2 -375 0 l-187 3 12 47 c33 124 122 222 239 264
80 28 214 21 287 -16z m-203 -378 c13 -22 7 -122 -10 -154 -22 -42 -77 -89
-122 -104 -127 -42 -265 57 -265 191 0 83 -11 79 200 79 140 0 191 -3 197 -12z
m477 -19 c11 -55 7 -84 -20 -137 -20 -41 -38 -60 -78 -83 -45 -26 -59 -30
-113 -27 -50 3 -71 10 -104 33 -66 47 -100 130 -85 209 l7 36 193 0 194 0 6
-31z m-320 -287 c63 -32 171 -37 222 -10 l31 17 5 -118 c4 -98 9 -127 30 -173
33 -72 84 -127 150 -163 51 -28 59 -30 233 -36 99 -4 197 -12 217 -18 122 -37
228 -182 228 -311 0 -236 -300 -370 -445 -198 -115 136 -37 338 130 338 89 0
145 -53 145 -136 0 -80 -50 -97 -70 -23 -19 70 -83 87 -137 37 -74 -69 -4
-198 107 -198 171 0 231 232 91 351 -57 50 -98 59 -257 59 -147 0 -207 11
-284 50 -60 31 -151 120 -178 174 -25 49 -38 58 -64 44 -24 -12 -22 -36 7 -83
23 -38 24 -47 25 -213 l0 -174 29 -29 c51 -51 141 -30 141 33 0 26 -27 58 -50
58 -22 0 -40 20 -40 45 0 66 108 57 158 -13 30 -42 36 -92 17 -138 -44 -106
-139 -140 -243 -88 -39 19 -59 38 -80 72 -27 46 -27 49 -32 267 -5 214 -6 220
-26 223 -44 6 -45 -1 -42 -484 3 -452 3 -460 25 -500 29 -54 101 -117 151
-132 49 -15 122 -15 159 -1 38 14 92 67 109 106 21 48 18 120 -7 160 -23 37
-84 73 -124 73 -60 0 -115 -55 -115 -115 0 -32 41 -75 71 -75 45 0 75 -50 47
-78 -20 -20 -92 -14 -129 11 -54 36 -79 82 -79 144 0 118 85 203 205 203 66 0
108 -16 159 -60 58 -51 80 -103 80 -185 0 -118 -57 -210 -162 -262 -48 -24
-69 -28 -137 -28 -120 1 -218 53 -286 151 -64 93 -63 85 -69 589 l-5 460 -24
3 c-13 2 -28 -2 -32 -10 -5 -7 -9 -211 -9 -454 0 -490 -1 -496 -65 -590 -95
-137 -284 -190 -424 -120 -202 103 -217 388 -25 482 110 54 237 17 292 -86 62
-116 -13 -260 -136 -260 -46 0 -67 19 -58 54 6 24 12 28 68 40 40 9 63 57 48
100 -33 101 -156 113 -226 21 -60 -79 -22 -210 75 -262 90 -47 218 -20 290 62
67 77 66 64 69 555 2 245 0 455 -3 467 -4 16 -13 23 -28 23 -45 0 -47 -12 -47
-231 0 -123 -4 -219 -11 -236 -24 -64 -109 -122 -180 -123 -119 -1 -208 141
-149 238 49 80 170 100 170 27 0 -26 -18 -45 -42 -45 -29 0 -60 -37 -52 -63
11 -38 35 -57 71 -57 89 0 103 34 103 243 0 157 1 167 25 208 29 52 29 53 9
73 -21 22 -35 12 -86 -64 -53 -79 -127 -140 -205 -170 -49 -20 -85 -24 -238
-29 -202 -8 -216 -12 -279 -81 -46 -51 -57 -81 -57 -146 0 -64 28 -123 73
-156 26 -18 46 -23 96 -23 61 0 65 2 98 37 28 31 34 45 34 83 0 52 -28 89 -75
101 -33 8 -78 -22 -83 -57 -4 -28 -29 -59 -48 -59 -19 0 -35 70 -25 107 15 51
29 70 65 87 72 34 158 15 213 -47 63 -71 68 -164 13 -250 -42 -67 -106 -101
-189 -101 -80 1 -125 19 -184 73 -65 60 -91 126 -85 217 9 130 76 227 196 282
51 23 71 26 236 31 161 6 186 9 228 29 62 31 121 89 155 154 25 48 28 65 31
181 2 70 5 127 6 127 2 0 18 -8 37 -17 23 -12 56 -18 104 -18 58 1 79 6 124
30 30 17 66 46 80 66 l26 36 34 -39 c18 -21 56 -51 85 -66z m-484 -548 c0 -20
-4 -25 -16 -20 -9 3 -20 6 -26 6 -6 0 -3 9 7 20 24 27 35 25 35 -6z m767 9
c23 -16 24 -17 7 -24 -34 -14 -44 -10 -42 16 3 30 2 29 35 8z m-1294 -341 c-3
-13 -19 -30 -35 -38 -17 -9 -28 -12 -26 -7 2 4 13 27 23 51 15 35 21 41 31 30
8 -8 11 -23 7 -36z m1817 29 c0 -10 10 -30 21 -45 25 -31 23 -37 -9 -25 -26
10 -47 51 -39 73 9 22 27 20 27 -3z m-1120 -165 l0 -95 -57 57 -58 57 47 27
c26 15 49 32 53 38 13 21 15 8 15 -84z m484 36 l37 -18 -40 -27 c-21 -14 -47
-40 -57 -57 -10 -16 -21 -30 -24 -30 -3 0 -4 43 -2 96 l3 96 23 -21 c12 -11
39 -29 60 -39z m-694 -241 c15 -28 14 -29 -29 -41 -22 -6 -49 -22 -59 -35 -25
-32 -32 -31 -32 1 0 29 16 64 39 81 25 19 69 16 81 -6z m898 3 c27 -19 45 -59
37 -84 -5 -16 -9 -14 -35 11 -17 17 -39 29 -55 29 -30 0 -43 23 -25 45 16 20
50 19 78 -1z"/>
<path d="M1104 1907 c-20 -17 -27 -33 -27 -57 0 -39 40 -80 79 -80 35 0 74 42
74 80 0 38 -39 80 -74 80 -14 0 -37 -11 -52 -23z m44 -30 c4 -21 -27 -35 -38
-17 -12 19 0 42 19 38 9 -2 17 -11 19 -21z"/>
<path d="M1514 1907 c-20 -17 -27 -33 -27 -57 0 -39 40 -80 79 -80 35 0 74 42
74 80 0 38 -39 80 -74 80 -14 0 -37 -11 -52 -23z m44 -30 c4 -21 -27 -35 -38
-17 -12 19 0 42 19 38 9 -2 17 -11 19 -21z"/>
<path d="M1224 1538 c4 -18 22 -48 40 -67 77 -77 205 -38 231 72 l7 27 -142 0
-142 0 6 -32z"/>
</g>
</svg>
