<svg
 xmlns="http://www.w3.org/2000/svg"
 xmlns:xlink="http://www.w3.org/1999/xlink"
 width="31px" height="29px">
<path fill-rule="evenodd"  fill="rgb(0, 175, 240)"
 d="M29.753,13.746 C29.550,13.974 29.266,14.091 28.980,14.091 C28.740,14.091 28.498,14.009 28.303,13.840 L27.221,12.904 L27.221,27.986 C27.221,28.546 26.761,29.000 26.193,29.000 L18.404,29.000 L11.602,29.000 L3.814,29.000 C3.246,29.000 2.786,28.546 2.786,27.986 L2.786,12.904 L1.704,13.840 C1.277,14.209 0.627,14.167 0.253,13.746 C-0.121,13.324 -0.078,12.684 0.349,12.315 L14.326,0.227 C14.714,-0.108 15.293,-0.108 15.681,0.227 L29.658,12.315 C30.085,12.684 30.128,13.324 29.753,13.746 ZM12.630,26.972 L17.377,26.972 L17.377,18.618 L12.630,18.618 L12.630,26.972 ZM15.003,2.338 L4.841,11.127 C4.841,11.129 4.842,11.132 4.842,11.134 L4.842,26.972 L10.575,26.972 L10.575,17.604 C10.575,17.044 11.035,16.590 11.603,16.590 L18.405,16.590 C18.972,16.590 19.432,17.044 19.432,17.604 L19.432,26.972 L25.166,26.972 L25.166,11.134 C25.166,11.132 25.166,11.129 25.166,11.127 L15.003,2.338 ZM16.278,10.491 L13.729,10.491 C13.161,10.491 12.701,10.037 12.701,9.478 C12.701,8.917 13.161,8.463 13.729,8.463 L16.278,8.463 C16.845,8.463 17.306,8.917 17.306,9.478 C17.306,10.037 16.845,10.491 16.278,10.491 Z"/>
</svg>
